<?xml version="1.0" standalone="no"?>
<!DOCTYPE svg PUBLIC "-//W3C//DTD SVG 20010904//EN"
 "http://www.w3.org/TR/2001/REC-SVG-20010904/DTD/svg10.dtd">
<svg version="1.0" xmlns="http://www.w3.org/2000/svg"
 width="766.000000pt" height="726.000000pt" viewBox="0 0 766.000000 726.000000"
 preserveAspectRatio="xMidYMid meet">
<metadata>
Created by potrace 1.15, written by Peter Selinger 2001-2017
</metadata>
<g transform="translate(0.000000,726.000000) scale(0.100000,-0.100000)"
fill="#000000" stroke="none">
<path d="M3373 6258 c-17 -13 -70 -56 -119 -96 -49 -39 -119 -88 -155 -107
-71 -37 -145 -109 -177 -172 -11 -22 -48 -70 -82 -108 -56 -60 -62 -71 -57
-100 5 -30 -1 -40 -61 -103 -68 -70 -137 -186 -130 -219 2 -10 15 -22 30 -27
23 -8 32 -6 52 13 l23 22 7 -32 c11 -54 7 -128 -9 -166 -47 -112 -50 -258 -7
-355 54 -123 188 -272 362 -405 68 -51 251 -173 261 -173 4 0 5 -8 2 -18 -2
-10 3 -49 11 -86 9 -37 21 -122 26 -189 14 -162 27 -235 52 -277 43 -73 151
-167 180 -158 18 6 46 -52 62 -130 16 -77 44 -138 87 -193 l29 -37 -39 -4
c-22 -2 -138 -2 -258 0 -901 13 -1014 8 -1315 -69 -211 -53 -417 -174 -562
-329 l-49 -52 7 34 c3 18 9 98 12 178 5 116 3 163 -10 230 -21 105 -57 234
-103 365 -39 111 -156 360 -176 372 -7 4 -18 20 -24 36 -14 31 -36 35 -55 9
-17 -23 -136 -102 -154 -102 -7 0 -25 -16 -40 -35 -25 -33 -26 -38 -15 -82 20
-76 31 -141 46 -263 22 -169 26 -155 -57 -180 -103 -31 -165 -67 -230 -131
-45 -45 -62 -55 -81 -52 -31 6 -77 -41 -77 -79 0 -19 -11 -35 -40 -58 l-40
-32 0 -82 c0 -71 3 -86 25 -119 14 -20 44 -49 66 -62 35 -23 38 -28 28 -47
-12 -23 -14 -130 -4 -181 4 -17 18 -51 32 -74 20 -34 35 -46 81 -63 56 -21
215 -45 238 -36 7 3 15 -6 18 -19 22 -89 156 -322 254 -444 62 -77 78 -92 147
-140 33 -23 61 -46 61 -52 1 -5 2 -15 3 -23 0 -8 21 -44 45 -80 l44 -65 -24
-66 c-13 -36 -24 -74 -24 -85 0 -42 237 -251 321 -282 8 -3 42 -23 74 -45 67
-44 68 -45 115 -66 95 -42 269 -132 300 -156 67 -50 101 -71 116 -71 16 0 72
-29 166 -87 119 -73 471 -142 883 -173 280 -20 810 -7 955 25 36 7 119 19 185
25 208 19 337 57 488 146 147 86 362 188 502 239 149 53 264 109 339 162 28
20 130 113 226 207 96 93 210 204 254 245 76 74 276 291 345 375 72 87 94 194
49 236 -20 18 -22 28 -19 123 2 98 4 105 42 181 70 136 64 219 -26 326 l-38
45 7 71 c3 39 10 84 17 100 14 38 14 122 0 166 -10 31 -8 45 24 129 52 135 84
256 105 399 10 69 25 152 34 185 20 77 20 139 0 212 -19 69 -19 71 -5 148 24
124 11 343 -30 474 -27 92 -51 127 -109 163 -40 25 -66 55 -126 144 -83 124
-147 180 -192 169 -18 -4 -34 3 -66 33 -38 35 -140 92 -165 92 -6 0 -43 21
-82 48 -129 85 -162 102 -206 102 -23 0 -54 -5 -68 -10 -22 -8 -34 -6 -68 15
-81 47 -190 87 -224 81 -29 -4 -40 2 -90 47 -32 29 -68 61 -80 72 -13 11 -70
44 -127 73 -125 65 -139 77 -161 141 -33 99 -77 117 -157 64 -39 -26 -58 -24
-58 7 0 10 -5 22 -11 25 -6 5 -8 22 -4 46 5 27 2 47 -8 62 -21 33 -109 61
-184 59 -54 -2 -65 1 -85 22 -28 30 -39 32 -103 22 -51 -8 -97 -27 -126 -52
-13 -12 -18 -10 -37 15 -12 16 -35 32 -52 36 -19 4 -30 13 -30 24 0 24 -27 46
-75 62 -22 7 -44 16 -50 20 -5 4 -52 17 -102 30 -71 17 -96 27 -108 46 -21 31
-66 30 -179 -3 -71 -20 -94 -23 -118 -15 -22 8 -38 7 -61 -2 -29 -12 -37 -11
-85 15 -65 34 -107 35 -149 6z m117 -34 c22 -9 40 -20 40 -25 0 -15 -77 -89
-91 -89 -7 0 -44 -21 -83 -46 -39 -25 -120 -76 -181 -113 -60 -36 -111 -74
-113 -84 -7 -33 29 -17 151 71 67 48 151 100 186 116 63 28 67 28 200 23 170
-6 351 -48 351 -82 0 -21 -53 -63 -178 -139 -58 -36 -44 -55 16 -20 78 45 171
114 182 135 6 11 8 29 5 40 -14 45 -201 104 -365 117 l-93 7 52 33 c63 39 79
40 91 7 12 -31 17 -31 45 -1 23 25 110 55 184 64 l44 5 -7 -36 c-8 -41 8 -54
36 -29 16 14 27 13 105 -8 96 -25 183 -59 183 -70 0 -4 -20 -27 -45 -51 -25
-24 -45 -51 -45 -60 0 -8 18 -28 40 -45 49 -36 57 -54 25 -54 -27 0 -42 -17
-27 -32 15 -15 92 9 92 29 0 9 -21 36 -46 61 -45 43 -46 44 -28 62 17 16 67
26 116 21 18 -1 38 -49 38 -91 0 -48 23 -57 184 -75 177 -19 300 -41 336 -60
15 -8 60 -39 100 -69 60 -45 76 -54 88 -44 12 10 10 16 -15 38 -16 14 -38 30
-49 37 -18 12 -18 13 5 33 45 39 70 24 105 -58 l31 -73 95 -51 c154 -81 199
-115 327 -246 83 -84 128 -122 138 -118 24 9 19 18 -41 84 -31 34 -53 62 -50
62 3 0 31 -10 63 -22 183 -67 354 -213 428 -363 19 -38 48 -115 65 -169 32
-104 45 -127 117 -212 62 -74 73 -107 73 -223 0 -101 5 -117 30 -101 10 6 12
28 7 97 -7 109 -26 164 -77 228 -74 93 -98 135 -124 223 -58 191 -98 262 -208
374 l-76 78 39 0 c45 0 82 -17 154 -70 56 -41 118 -75 175 -95 138 -49 226
-174 285 -409 18 -72 52 -187 74 -255 63 -194 56 -255 -47 -375 -64 -74 -103
-148 -138 -260 -45 -145 -160 -353 -253 -458 -23 -26 -84 -73 -134 -104 -51
-32 -144 -92 -207 -134 -63 -42 -121 -80 -128 -84 -10 -6 -11 5 -6 51 10 87
24 107 93 133 131 49 196 116 234 242 17 55 31 71 102 121 15 11 43 57 70 113
37 80 58 109 135 189 93 97 121 143 141 233 7 35 25 70 56 109 54 70 54 92 -7
194 -52 87 -68 132 -86 242 -8 49 -26 111 -40 140 -35 70 -123 187 -139 187
-32 0 -22 -24 39 -95 77 -91 95 -127 108 -214 20 -136 31 -174 79 -269 27 -53
49 -101 49 -107 0 -5 -16 -33 -35 -61 -20 -28 -44 -84 -56 -124 -28 -103 -37
-117 -133 -203 -78 -72 -125 -134 -142 -190 -23 -78 -48 -117 -88 -141 -45
-26 -69 -64 -86 -134 -15 -61 -77 -124 -163 -167 -90 -45 -97 -45 -97 4 0 22
-3 46 -6 55 -4 11 9 22 48 42 84 42 155 101 177 147 10 23 22 71 26 107 10 86
28 131 121 285 42 72 102 182 133 245 l56 115 0 103 c0 80 -3 105 -15 112 -27
17 -34 -6 -20 -69 20 -95 11 -135 -63 -263 -121 -211 -224 -422 -236 -484 -19
-97 -39 -140 -86 -183 -47 -44 -70 -52 -61 -23 3 9 8 51 12 92 8 91 21 124 79
205 39 56 46 75 25 75 -11 0 -98 -133 -114 -175 -8 -22 -19 -70 -25 -107 -14
-100 -33 -131 -96 -162 -29 -14 -56 -26 -58 -26 -3 0 13 34 34 76 35 70 67
180 84 293 11 70 -17 46 -36 -31 -43 -166 -96 -282 -169 -361 -57 -62 -104
-83 -165 -71 -45 8 -65 37 -65 94 0 50 -41 128 -80 152 -11 7 -20 18 -20 23 0
18 -21 34 -36 28 -10 -4 -14 -23 -14 -67 l1 -61 14 33 14 33 46 -48 c38 -41
45 -54 45 -90 0 -93 48 -138 138 -129 28 2 52 2 52 0 0 -3 -22 -37 -49 -77
-52 -77 -74 -99 -163 -166 -72 -54 -94 -97 -79 -156 15 -62 14 -153 -5 -242
-18 -87 -36 -127 -104 -228 -46 -68 -53 -95 -25 -95 20 0 93 129 131 230 42
110 67 251 54 305 -20 85 -17 93 75 179 47 43 116 120 153 170 88 118 89 113
23 -129 -44 -161 -60 -205 -92 -252 -37 -54 -47 -81 -63 -173 -9 -47 -28 -105
-51 -150 -31 -61 -39 -89 -43 -150 -2 -41 -11 -87 -18 -102 -16 -32 -18 -86
-3 -147 7 -33 7 -58 -3 -93 -11 -45 -10 -56 12 -119 20 -61 22 -74 11 -109
-11 -36 -9 -47 19 -116 16 -41 30 -84 30 -94 0 -10 20 -61 45 -112 50 -103 52
-110 40 -181 -7 -45 -6 -49 11 -45 14 2 22 16 28 49 8 43 5 54 -43 165 -28 65
-51 134 -51 151 0 18 -11 61 -24 96 -13 36 -22 75 -19 90 3 14 -5 56 -17 92
-17 52 -21 77 -15 109 5 22 7 68 5 101 -8 158 15 324 59 416 17 36 38 102 46
147 15 86 31 126 76 182 25 31 66 148 84 239 4 19 20 61 36 95 17 35 29 78 29
101 0 70 8 82 57 95 37 9 48 8 55 -2 10 -14 6 -123 -5 -134 -3 -3 -20 4 -36
16 -38 26 -39 15 -6 -31 23 -30 25 -40 19 -89 -4 -30 -9 -59 -12 -64 -3 -5
-18 6 -33 24 -40 48 -47 30 -12 -32 27 -48 28 -57 20 -105 -7 -46 -11 -52 -26
-43 -10 5 -23 16 -31 24 -23 29 -31 16 -12 -20 19 -36 19 -38 -1 -117 -20 -79
-21 -80 -38 -58 -10 11 -19 27 -22 34 -2 6 -8 8 -13 4 -4 -4 -1 -30 9 -56 16
-47 16 -51 -3 -115 -12 -37 -25 -64 -29 -62 -5 3 -14 19 -21 36 -7 16 -16 30
-21 30 -11 0 -11 -7 0 -48 6 -20 6 -57 -1 -100 -14 -94 -19 -100 -52 -62 -38
46 -46 28 -13 -31 26 -48 37 -122 18 -133 -4 -3 -19 6 -31 19 -44 47 -54 26
-16 -33 18 -26 27 -58 32 -109 3 -40 3 -73 -2 -73 -4 0 -21 12 -36 27 -20 19
-31 24 -39 16 -7 -7 5 -26 42 -64 44 -45 53 -61 57 -99 l5 -45 -30 28 c-28 26
-53 35 -53 19 0 -5 16 -27 35 -49 29 -34 75 -120 75 -140 0 -3 -16 9 -36 27
-26 23 -40 28 -47 21 -8 -8 4 -26 41 -64 48 -48 110 -162 96 -176 -2 -3 -25
10 -49 27 -51 36 -55 37 -55 19 0 -16 106 -97 126 -97 7 0 16 4 19 10 3 5 38
19 77 30 78 24 150 24 275 0 65 -13 80 -12 148 4 42 10 106 33 143 52 141 70
192 142 212 299 16 130 38 169 125 218 109 61 131 81 169 160 26 52 38 95 45
154 11 86 6 113 -48 268 -23 63 -28 129 -16 185 8 39 69 165 84 174 19 12 17
-74 -6 -174 -28 -123 -24 -152 32 -217 79 -93 83 -151 20 -278 l-45 -90 -5
-149 c-4 -101 -10 -157 -20 -177 -17 -32 -60 -67 -121 -97 -51 -26 -103 -84
-128 -142 -54 -128 -70 -157 -115 -214 -133 -167 -215 -206 -371 -176 -96 18
-265 -23 -346 -85 -27 -21 -35 -36 -45 -86 -15 -77 -40 -107 -128 -153 -77
-40 -89 -52 -72 -69 9 -9 30 -2 86 26 98 51 143 97 150 156 4 25 10 56 15 68
13 32 78 69 171 100 78 26 83 26 152 13 83 -16 183 -19 212 -5 32 14 -194
-212 -265 -266 -81 -61 -173 -106 -343 -168 -162 -60 -260 -105 -447 -207 -80
-43 -165 -89 -190 -100 -68 -32 -201 -62 -330 -74 -63 -6 -137 -15 -165 -20
-41 -7 -52 -5 -62 8 -19 23 -17 26 29 47 54 25 56 40 28 159 -32 132 -206 832
-240 961 -16 61 -47 180 -69 265 -67 260 -121 468 -157 605 -19 72 -46 177
-61 233 l-26 104 71 71 71 71 43 -19 c24 -10 48 -23 54 -29 7 -6 24 -50 38
-99 23 -74 26 -103 24 -188 l-3 -102 -25 38 c-28 43 -56 60 -46 29 6 -21 189
-330 201 -342 4 -4 -4 16 -17 43 -14 28 -42 84 -62 126 l-36 76 10 104 c9 98
3 209 -16 277 -7 23 -2 25 33 16 28 -8 87 -137 101 -224 21 -124 23 -165 8
-249 -16 -86 -15 -101 9 -101 21 0 25 24 25 160 0 135 -18 258 -50 344 -11 27
-19 51 -17 51 1 1 43 0 93 -3 l91 -4 66 -107 c83 -135 91 -165 83 -315 -8
-147 -20 -201 -63 -295 -31 -69 -34 -73 -47 -55 -21 28 -31 10 -18 -33 12 -40
81 -157 88 -150 3 2 -5 28 -16 57 l-21 52 27 67 c49 122 65 199 71 342 6 155
-5 204 -79 352 -21 43 -36 83 -32 89 11 18 103 -1 189 -39 85 -37 153 -45 208
-24 46 18 74 13 96 -15 28 -36 44 -97 43 -168 -1 -51 -9 -76 -58 -177 -52
-107 -60 -139 -33 -139 13 0 83 154 109 239 11 37 20 92 20 122 -1 76 -36 158
-78 182 -31 18 -36 19 -97 3 -86 -22 -109 -20 -196 10 -64 23 -97 28 -254 34
-184 8 -253 21 -372 68 -75 31 -199 99 -271 149 -112 79 -147 140 -182 315
-12 60 -62 147 -120 208 -48 50 -50 21 -4 -45 20 -30 35 -58 31 -61 -11 -11
-126 107 -148 153 -17 34 -24 81 -35 211 -8 92 -21 193 -29 225 -8 32 -15 61
-15 63 0 2 35 -13 78 -34 86 -43 208 -92 294 -118 49 -15 54 -19 42 -32 -22
-21 -3 -37 69 -57 84 -22 162 -25 162 -5 0 11 -16 16 -65 21 -37 3 -82 15
-105 27 -40 21 -40 21 -7 15 25 -4 32 -2 32 11 0 9 -6 16 -13 16 -8 0 -69 21
-138 46 -355 130 -779 427 -922 646 -62 96 -70 117 -75 218 -4 84 -1 104 22
171 18 51 26 96 26 140 0 64 1 65 49 116 46 48 113 97 85 62 -7 -8 -24 -44
-39 -82 -45 -114 -23 -133 73 -62 68 49 87 57 55 23 -35 -39 -94 -160 -91
-187 5 -43 47 -30 155 47 54 39 99 69 101 67 2 -1 -11 -26 -28 -55 -62 -106
-95 -191 -91 -237 2 -29 44 -8 126 63 48 42 90 72 95 68 5 -5 -9 -38 -30 -72
-47 -77 -103 -238 -98 -284 2 -28 7 -34 31 -36 24 -3 42 10 116 82 48 47 92
86 98 86 24 0 33 -62 18 -114 -15 -50 -20 -162 -9 -203 8 -27 35 -30 56 -5 9
9 30 43 48 74 l32 58 24 -18 c17 -12 23 -27 24 -54 0 -20 5 -71 11 -113 20
-133 52 -132 110 3 35 81 43 92 72 92 15 0 17 -10 17 -79 0 -128 32 -131 106
-10 25 41 41 58 61 62 31 6 39 -2 79 -81 l27 -54 -12 -121 c-17 -178 -6 -224
90 -387 21 -36 47 -100 58 -143 l20 -78 -23 -62 c-13 -36 -21 -75 -19 -92 3
-21 -4 -47 -22 -80 -24 -45 -26 -56 -20 -121 6 -64 5 -76 -19 -120 -30 -56
-33 -109 -10 -143 13 -19 22 -22 47 -17 42 8 48 22 41 82 -6 50 6 94 26 94 5
0 10 -19 12 -42 2 -35 8 -45 30 -56 50 -24 98 17 84 73 -5 20 -1 27 23 40 16
8 39 32 51 52 13 21 45 56 74 79 36 28 57 54 71 90 11 27 35 69 53 93 41 56
41 89 3 264 -16 72 -32 155 -36 182 -4 28 -18 77 -32 110 -21 53 -44 195 -31
195 3 0 50 -60 105 -132 213 -282 257 -308 540 -327 158 -10 186 -23 285 -130
67 -72 98 -125 120 -201 10 -34 18 -45 33 -45 11 0 21 8 23 17 10 50 -109 226
-201 300 -93 76 -98 77 -370 117 -90 13 -160 47 -230 111 -54 49 -300 347
-359 435 -35 51 -67 70 -146 86 -69 14 -68 13 -38 81 24 55 3 54 -33 -1 -40
-62 -74 -71 -155 -41 l-56 21 15 36 c31 73 11 86 -29 19 -34 -59 -75 -74 -137
-50 -24 9 -47 20 -52 24 -4 3 0 27 9 53 25 74 13 91 -20 27 -16 -30 -35 -63
-44 -72 -27 -32 -112 -18 -167 26 -17 14 -18 17 -5 25 50 31 128 130 113 144
-13 14 -23 6 -37 -27 -19 -46 -74 -86 -118 -86 -28 0 -42 7 -66 34 -27 31 -78
143 -69 153 2 2 24 9 47 16 66 19 64 37 -4 34 -48 -2 -58 1 -84 26 -16 16 -41
50 -55 76 l-26 47 42 11 c51 14 82 36 73 51 -5 9 -18 6 -46 -8 -74 -38 -131
-17 -149 54 -7 30 -21 52 -42 68 -18 13 -52 43 -76 67 -49 48 -51 69 -12 124
12 16 18 31 15 34 -12 13 -56 -17 -62 -42 l-7 -26 -33 32 c-33 32 -33 32 -18
68 8 20 26 48 40 62 15 16 21 29 16 33 -13 8 -72 -41 -72 -59 0 -28 -19 -24
-68 15 -34 27 -51 49 -56 71 -5 28 -1 38 43 84 27 28 64 78 82 110 44 78 90
123 178 170 40 22 97 60 126 85 29 25 61 52 71 60 11 8 34 27 52 43 39 31 56
33 112 11z m1101 -203 c-6 -10 -7 -21 -4 -25 3 -3 54 -6 112 -6 86 0 112 -4
148 -21 46 -22 51 -33 28 -59 -14 -15 -13 -20 6 -43 24 -32 23 -32 -50 -11
-31 8 -137 28 -236 43 -198 30 -208 36 -156 85 32 30 91 55 134 56 24 0 26 -2
18 -19z m1950 -1004 c19 -12 69 -74 114 -140 67 -98 88 -123 129 -145 58 -32
77 -63 107 -177 25 -97 37 -330 20 -418 -17 -91 -51 -164 -168 -359 -60 -101
-134 -226 -165 -278 -73 -123 -156 -213 -265 -285 -82 -55 -216 -158 -307
-237 -24 -21 -37 -39 -32 -46 5 -8 45 22 116 86 72 65 142 116 211 156 184
104 215 138 331 366 40 80 110 197 154 260 45 63 89 130 98 148 9 17 20 32 25
32 5 0 12 -32 16 -71 11 -112 -3 -145 -109 -258 -50 -53 -104 -121 -121 -151
-26 -49 -30 -68 -36 -180 -9 -139 -34 -248 -82 -349 -39 -84 -80 -128 -192
-206 -128 -89 -169 -139 -248 -298 -54 -108 -79 -148 -129 -200 -90 -92 -135
-112 -299 -131 -74 -8 -166 -17 -205 -20 -72 -6 -72 -6 -77 21 -3 15 1 36 8
47 7 12 16 45 19 75 11 85 44 212 60 230 19 21 82 177 108 265 11 38 29 77 39
85 12 10 26 45 36 86 l16 71 135 94 c75 52 181 125 236 162 114 77 180 143
265 267 80 118 112 186 150 321 41 144 44 149 131 246 40 43 76 89 81 102 22
58 10 160 -35 300 -24 75 -56 189 -71 252 -16 71 -43 150 -70 207 -24 51 -40
93 -36 93 4 0 23 -10 42 -23z m-3228 -40 c21 -30 37 -58 37 -63 0 -10 -142
-145 -182 -172 -21 -15 -21 -15 -14 29 11 73 36 141 75 201 20 32 39 58 42 58
3 0 22 -24 42 -53z m-2063 -1169 c96 -147 188 -378 246 -623 24 -101 26 -122
21 -270 -5 -167 -25 -291 -58 -356 -15 -31 -22 -35 -48 -31 -16 2 -44 -3 -62
-12 -18 -9 -36 -16 -41 -16 -4 0 -8 109 -8 243 -1 449 -39 619 -209 911 -28
49 -50 93 -49 98 3 7 157 118 165 118 1 0 21 -28 43 -62z m3339 -149 c1 -34
-5 -55 -24 -80 -27 -38 -37 -57 -59 -111 -9 -22 -35 -53 -68 -78 -29 -23 -61
-57 -71 -76 -9 -18 -30 -40 -46 -49 -34 -17 -40 -29 -34 -71 4 -26 1 -33 -16
-39 -31 -9 -41 2 -41 44 0 68 -45 83 -80 26 -17 -27 -21 -47 -18 -88 3 -46 1
-52 -17 -52 -32 0 -32 62 0 126 24 46 26 59 20 119 -6 60 -4 72 20 120 20 39
25 61 21 85 -4 21 0 46 14 76 11 24 20 55 20 69 l1 25 11 -25 c5 -14 10 -61
11 -105 1 -68 -4 -92 -31 -160 -38 -96 -39 -102 -8 -116 61 -28 201 65 284
191 41 62 76 151 89 230 7 43 7 44 14 15 4 -16 7 -51 8 -76z m2286 -105 c-25
-167 -79 -335 -160 -496 -96 -190 -105 -258 -54 -404 47 -137 51 -160 40 -231
-20 -127 -85 -229 -191 -297 -83 -54 -124 -111 -140 -195 -24 -133 -50 -192
-104 -247 -80 -79 -223 -144 -319 -144 -27 0 -77 7 -111 16 -60 16 -171 15
-268 -2 l-36 -6 -20 68 c-46 154 -52 183 -52 235 0 30 -7 81 -15 112 -8 32
-15 69 -15 82 0 26 -6 25 185 46 198 21 296 54 376 126 62 56 131 150 182 245
63 120 122 194 225 280 102 87 178 176 227 270 56 106 66 144 75 283 6 110 11
139 33 180 23 47 145 190 153 182 3 -2 -2 -49 -11 -103z m-5742 -340 c26 -9
47 -19 47 -23 0 -4 -24 -15 -54 -24 -108 -34 -190 -121 -226 -239 -20 -66 -41
-98 -62 -98 -36 0 -123 38 -144 63 -38 45 -32 78 29 149 73 86 137 132 226
162 89 30 121 32 184 10z m2067 -114 c-19 -5 -123 -18 -230 -30 -107 -11 -249
-29 -315 -40 -66 -10 -183 -26 -260 -34 -144 -17 -267 -48 -411 -106 -180 -72
-309 -175 -426 -341 -45 -63 -49 -66 -67 -45 -32 38 178 282 328 381 176 116
457 198 720 212 58 3 108 7 110 9 2 2 135 4 295 3 174 -1 277 -4 256 -9z m588
-51 l3 -45 -123 -12 c-454 -45 -1084 -147 -1399 -227 -217 -55 -413 -138 -613
-260 -41 -25 -78 -45 -81 -45 -4 0 44 44 107 97 277 237 376 290 698 375 209
55 247 63 454 98 250 42 574 67 831 66 l120 -1 3 -46z m-3079 -214 c81 -53
174 -54 199 -2 11 22 11 22 11 1 1 -30 -31 -55 -78 -61 -62 -8 -109 5 -150 43
-44 39 -61 43 -61 14 0 -15 20 -30 80 -60 89 -45 95 -62 27 -81 -22 -6 -50
-17 -63 -26 -27 -17 -51 -8 -101 40 -31 29 -33 35 -33 100 0 69 1 70 43 111
l42 41 24 -48 c14 -29 38 -58 60 -72z m1453 65 c-151 -59 -301 -155 -527 -337
l-59 -48 34 50 c57 84 170 194 239 233 72 40 156 73 276 107 110 32 125 30 37
-5z m-892 -87 c0 -57 0 -57 -64 -119 -58 -56 -146 -184 -146 -211 0 -17 -37
-26 -75 -19 -44 9 -81 53 -101 122 -15 52 -15 57 3 76 34 39 125 123 159 147
37 26 141 59 192 60 l32 1 0 -57z m-426 -119 c-28 -67 -3 -145 66 -208 52 -47
103 -69 140 -61 25 6 28 4 23 -14 -4 -17 -13 -21 -47 -21 -85 1 -157 55 -191
145 -17 44 -40 59 -51 31 -7 -18 36 -86 94 -148 42 -46 44 -50 29 -65 -15 -15
-23 -16 -62 -5 -60 16 -95 15 -95 -2 0 -8 7 -17 16 -20 28 -11 145 -6 167 6
12 7 51 13 86 14 54 1 67 4 83 24 20 25 24 80 7 97 -17 17 39 121 96 178 l50
50 5 -130 c5 -106 10 -138 27 -175 l22 -45 -37 -13 c-90 -31 -266 -54 -377
-49 -192 8 -236 44 -243 198 -4 85 -4 86 28 122 21 24 44 39 68 43 48 9 72 21
72 39 0 12 26 45 35 45 2 0 -3 -16 -11 -36z m510 -451 c15 -32 74 -146 131
-253 56 -107 133 -253 170 -324 l68 -128 -44 7 c-71 11 -186 62 -264 115 -115
80 -236 238 -335 438 -71 143 -71 141 20 164 78 20 156 35 200 37 22 1 30 -8
54 -56z m5413 -356 c-23 -39 -302 -357 -327 -372 -6 -4 -3 10 8 31 11 22 29
71 42 109 37 114 52 133 145 176 90 41 130 80 142 137 l8 37 3 -38 c2 -27 -4
-51 -21 -80z m-5136 -376 c24 -5 61 -13 82 -16 34 -5 40 -11 73 -77 l36 -71
-53 7 c-91 12 -200 82 -255 163 -35 51 -30 57 25 29 27 -14 68 -30 92 -35z
m2196 23 c111 -53 190 -181 212 -345 5 -36 19 -85 30 -107 40 -79 21 -151 -44
-168 -38 -9 -110 4 -138 26 -47 37 -57 77 -57 219 0 148 -12 218 -46 278 -40
69 -55 68 -29 -2 6 -15 0 -13 -26 11 -37 34 -72 55 -133 79 -22 8 -36 18 -33
21 11 11 112 22 162 17 28 -3 73 -16 102 -29z m-2189 -158 c26 -13 75 -35 109
-49 54 -22 64 -23 74 -11 13 16 6 27 180 -304 l70 -133 -52 27 c-162 82 -327
191 -407 269 l-82 81 16 54 c17 58 31 90 40 90 2 0 26 -11 52 -24z m1731 -12
c60 -17 121 -67 163 -134 27 -42 70 -166 83 -235 3 -16 12 -55 20 -85 22 -82
20 -104 -16 -134 -52 -44 -111 -29 -145 36 -12 24 -16 65 -18 177 -1 140 -2
148 -30 203 -16 31 -44 71 -64 90 l-35 33 30 -45 c48 -73 49 -77 9 -42 -43 38
-101 67 -163 82 -66 17 -59 31 28 54 70 19 76 19 138 0z m821 -382 c-1 -9 -35
-53 -77 -96 l-75 -80 -67 17 c-82 21 -93 21 -89 0 4 -22 37 -31 116 -32 59 -1
67 2 108 36 l45 36 -6 -29 c-15 -66 -66 -102 -145 -104 -19 0 -41 -4 -49 -9
-20 -13 -6 -44 16 -37 10 3 44 12 77 21 36 11 73 30 96 51 l38 34 31 -48 c17
-27 40 -78 52 -113 11 -35 34 -89 50 -121 16 -32 29 -61 29 -66 0 -5 -53 -12
-117 -16 -65 -4 -141 -9 -169 -12 l-51 -6 -31 79 c-17 43 -36 101 -42 129 -7
32 -21 60 -36 73 -19 16 -24 31 -24 65 0 33 -7 52 -25 74 -14 17 -25 39 -25
51 0 11 -7 39 -16 60 -21 54 -12 76 11 28 34 -72 133 -113 210 -87 20 7 52 27
71 46 30 31 34 41 34 87 l1 52 29 -33 c17 -18 30 -40 30 -50z m-467 -158 c5
-26 -1 -41 -41 -93 -47 -61 -47 -61 -98 -61 -58 0 -85 -18 -59 -40 15 -13 112
-9 135 5 5 3 13 23 16 44 4 28 13 42 30 50 22 10 24 9 24 -19 0 -52 -17 -78
-70 -105 -52 -26 -59 -35 -37 -53 10 -8 25 -1 61 30 27 23 56 55 66 71 l18 28
19 -28 c11 -15 30 -47 42 -69 14 -24 36 -47 54 -55 27 -12 76 -83 77 -111 0
-5 -69 -8 -154 -8 l-154 0 -55 69 c-77 94 -97 130 -97 171 0 38 -23 80 -44 80
-16 0 -36 43 -35 73 0 15 2 17 6 7 11 -31 68 -80 99 -86 74 -14 174 61 174
132 1 35 14 16 23 -32z"/>
<path d="M3415 5935 c-73 -31 -94 -50 -77 -67 9 -9 20 -8 47 5 36 17 36 17 74
-13 20 -17 52 -35 70 -40 36 -10 125 3 148 21 22 19 15 54 -18 85 -27 26 -37
29 -107 32 -64 2 -87 -2 -137 -23z"/>
<path d="M3884 5824 c-32 -19 -68 -44 -79 -55 -20 -18 -22 -18 -39 -1 -17 16
-20 15 -62 -33 -59 -66 -105 -136 -102 -154 7 -35 29 -19 58 41 17 35 43 72
58 83 21 15 24 15 13 2 -16 -20 -8 -47 14 -47 8 0 15 3 15 8 0 16 93 103 132
123 37 19 42 19 50 5 8 -13 22 -15 91 -10 98 7 160 -9 165 -42 2 -17 16 -25
70 -39 62 -16 154 -58 194 -88 9 -7 16 -22 15 -32 -2 -22 22 -36 123 -67 61
-19 75 -27 75 -43 0 -14 11 -24 40 -33 68 -23 168 -42 221 -42 77 0 114 -10
114 -30 0 -15 15 -17 148 -17 141 0 248 -12 297 -35 17 -7 23 -18 22 -36 -2
-23 5 -28 60 -47 70 -25 102 -44 156 -94 33 -31 36 -37 23 -47 -23 -17 -20
-29 24 -94 40 -59 68 -121 88 -194 l11 -39 -39 6 c-40 5 -60 -7 -42 -25 14
-14 83 -28 105 -22 19 6 23 47 7 88 -5 14 -7 26 -4 26 8 0 98 -49 117 -63 23
-19 22 -25 -5 -29 -43 -6 -28 -43 32 -85 30 -21 70 -61 88 -88 l34 -50 -24 -5
c-31 -8 -34 -33 -7 -76 30 -49 23 -137 -18 -202 -35 -57 -266 -262 -330 -293
-68 -33 -135 -36 -206 -9 -56 21 -58 23 -41 41 19 21 12 52 -13 47 -9 -2 -27
-23 -40 -47 -29 -55 -29 -57 2 -37 14 9 25 12 25 6 0 -13 63 -39 128 -52 43
-9 52 -14 46 -27 -3 -9 -10 -56 -15 -106 -7 -72 -6 -92 5 -103 27 -28 35 -4
29 88 -6 85 -5 92 17 115 13 13 39 30 59 36 85 27 323 245 367 336 29 58 38
159 20 216 -7 22 -5 26 6 22 8 -3 20 1 27 9 23 28 -65 167 -136 213 l-23 15
23 19 22 19 -62 59 c-44 41 -77 62 -109 71 -42 12 -47 17 -80 83 -19 39 -40
77 -46 84 -8 10 -8 17 0 25 7 7 12 22 12 34 0 31 -109 128 -176 155 -37 16
-54 29 -56 43 -2 16 -19 27 -68 44 -52 19 -101 26 -242 35 -150 9 -177 13
-181 27 -4 14 -24 18 -118 23 -131 7 -214 28 -222 56 -3 13 -36 30 -110 57
-84 30 -107 42 -109 58 -4 29 -118 102 -200 128 -43 14 -68 28 -71 39 -6 23
-91 48 -192 56 -45 4 -86 12 -93 20 -19 18 -21 18 -88 -23z"/>
<path d="M2945 5780 c-11 -18 -18 -116 -7 -105 5 6 12 19 14 30 4 26 45 31 92
11 33 -14 36 -19 36 -55 0 -37 6 -45 74 -106 61 -55 75 -73 80 -105 5 -32 23
-57 85 -124 45 -47 93 -110 110 -143 32 -64 44 -77 94 -102 27 -13 33 -24 41
-65 7 -42 13 -50 42 -62 18 -8 44 -14 58 -14 17 0 32 -11 47 -32 33 -49 48
-58 98 -58 41 0 50 -4 77 -37 l32 -38 90 3 c75 3 97 0 131 -17 22 -12 56 -21
76 -21 48 0 271 47 306 64 20 10 30 11 39 2 14 -13 -16 64 -30 78 -16 16 -25
-4 -12 -24 7 -12 8 -20 2 -20 -5 0 -33 -11 -62 -24 -33 -15 -92 -29 -154 -37
-92 -11 -106 -11 -148 5 -25 10 -86 21 -135 26 -72 7 -97 13 -123 33 -18 14
-52 30 -76 36 -23 7 -57 25 -75 40 -18 16 -55 40 -82 52 -40 19 -54 33 -71 68
-16 34 -32 50 -65 65 -43 21 -55 37 -81 106 -7 19 -54 78 -105 132 -73 76 -93
103 -93 125 0 23 -15 44 -70 97 -57 56 -70 74 -70 100 0 45 -23 72 -77 92 -27
9 -52 21 -57 26 -13 11 -23 10 -31 -2z"/>
<path d="M3890 5712 c-14 -4 -26 -16 -28 -26 -4 -16 0 -18 30 -11 65 15 170 9
218 -12 61 -27 149 -96 273 -209 94 -88 150 -129 303 -226 33 -20 87 -57 121
-82 l61 -45 -14 -47 c-19 -63 -18 -201 2 -277 19 -75 45 -128 92 -187 46 -59
65 -74 137 -113 58 -31 64 -32 180 -32 109 0 125 2 170 26 78 39 95 52 95 71
0 25 -8 23 -98 -23 -96 -50 -180 -61 -280 -35 -82 21 -126 52 -184 128 -75 99
-93 159 -93 309 0 121 1 127 28 168 21 32 26 46 18 54 -8 8 -16 9 -29 1 -14
-9 -24 -6 -52 18 -24 21 -29 28 -15 25 11 -3 36 -9 55 -13 25 -4 46 -20 75
-54 53 -63 88 -77 223 -89 131 -12 147 -20 217 -111 72 -93 111 -190 140 -342
3 -17 12 -28 22 -28 22 0 12 66 -28 184 -68 199 -141 291 -284 362 -72 36 -86
39 -160 39 -76 0 -111 8 -101 23 2 4 96 7 208 7 l203 0 65 -31 c87 -42 167
-117 229 -214 49 -75 81 -101 81 -64 0 28 -86 139 -162 209 -41 37 -101 80
-138 98 l-65 31 -240 8 c-264 9 -338 21 -450 71 -103 46 -188 105 -295 205
-115 107 -223 184 -299 213 -59 22 -188 34 -231 21z"/>
<path d="M4949 4948 c-17 -63 -6 -165 23 -229 50 -107 150 -188 259 -210 103
-21 209 28 244 113 12 31 13 38 0 48 -12 10 -20 3 -45 -39 -61 -99 -119 -116
-242 -71 -93 35 -169 113 -197 204 -26 84 -26 90 0 143 24 51 22 77 -8 81 -18
3 -24 -4 -34 -40z"/>
<path d="M5080 4865 c-16 -19 -4 -50 41 -106 57 -73 196 -110 268 -72 19 10
37 24 39 31 3 11 0 12 -16 3 -33 -17 -126 -13 -184 9 -55 21 -98 67 -98 106 0
19 -17 44 -31 44 -4 0 -12 -7 -19 -15z"/>
<path d="M4244 1915 c2 -11 16 -52 30 -91 27 -78 46 -194 46 -278 0 -50 17
-86 33 -69 4 3 7 -10 7 -30 0 -56 26 -48 34 9 8 59 8 167 0 188 -12 32 -23 14
-30 -51 l-8 -68 -17 109 c-17 106 -53 224 -85 276 -12 19 -14 20 -10 5z"/>
<path d="M4978 1788 c-154 -239 -274 -601 -266 -804 2 -62 6 -79 18 -79 12 0
17 20 23 85 16 178 99 482 191 696 29 68 52 124 51 124 -2 0 -9 -10 -17 -22z"/>
</g>
</svg>
